<svg width="1200" height="630" viewBox="0 0 1200 630" fill="none" xmlns="http://www.w3.org/2000/svg">
  <rect width="1200" height="630" fill="#0F1115"/>
  <rect x="72" y="72" width="1056" height="486" rx="32" fill="#151922" stroke="#2F3545" stroke-width="2"/>
  <path d="M270 210C270 184.595 290.595 164 316 164H430C455.405 164 476 184.595 476 210V324C476 349.405 455.405 370 430 370H316C290.595 370 270 349.405 270 324V210Z" fill="#F97316"/>
  <circle cx="344" cy="225" r="24" fill="#0F1115"/>
  <circle cx="344" cy="309" r="24" fill="#0F1115"/>
  <circle cx="420" cy="267" r="24" fill="#0F1115"/>
  <path d="M344 249V285" stroke="#0F1115" stroke-width="18" stroke-linecap="round"/>
  <path d="M365 296L399 278" stroke="#0F1115" stroke-width="18" stroke-linecap="round"/>
  <path d="M552 192H872" stroke="#5B6478" stroke-width="18" stroke-linecap="round"/>
  <path d="M552 267H1010" stroke="#F97316" stroke-width="18" stroke-linecap="round"/>
  <path d="M552 342H930" stroke="#38BDF8" stroke-width="18" stroke-linecap="round"/>
  <path d="M274 454H406" stroke="#38BDF8" stroke-width="14" stroke-linecap="round"/>
  <path d="M436 454H646" stroke="#F97316" stroke-width="14" stroke-linecap="round"/>
  <path d="M676 454H872" stroke="#A78BFA" stroke-width="14" stroke-linecap="round"/>
  <text x="270" y="520" fill="#E5E7EB" font-family="Arial, Helvetica, sans-serif" font-size="48" font-weight="800">Git Flow vs GitHub Flow</text>
  <text x="552" y="158" fill="#E5E7EB" font-family="Arial, Helvetica, sans-serif" font-size="52" font-weight="800">Branch Strategy</text>
  <text x="552" y="408" fill="#9CA3AF" font-family="Arial, Helvetica, sans-serif" font-size="28" font-weight="600">release, feature, hotfix, pull request</text>
</svg>
